<svg width="300" height="300" fill="none" xmlns="http://www.w3.org/2000/svg"><path fill-rule="evenodd" clip-rule="evenodd" d="M295.08 76.1c-1.95 14.07-16.85 19.66-24.89 21.68 7.06 27.87 13.08 63.37 8.93 93.2-4.57 32.94-28.3 58.36-59.1 75.1-30.77 16.7-65.84 23.14-88.36 20.02-22.51-3.13-54.5-18.9-79.54-43.35-25.08-24.5-40.98-55.42-36.4-88.35 4.89-35.25 18.94-65.98 32.2-88.33-7.33-4.57-18.05-13.6-16.25-26.56a35.46 35.46 0 0 1 40-30.24c10.66 1.48 16.46 10.4 19.51 18.13l1.81-.42c10.91-2.4 23.01-3.05 33.74-3a305.17 305.17 0 0 1 40.88 3.1l.1.02.1.01a119.31 119.31 0 0 1 3.32.49 277.5 277.5 0 0 1 37.16 8.4c10.4 3.15 21.95 7.49 31.83 13.39l.1.06c4.97-6.93 13.3-14.92 24.62-13.34a35.46 35.46 0 0 1 30.24 40Zm-33.52 112.45c-3.52 25.37-22.08 46.77-50 61.94-28.16 15.3-59.43 20.55-77.46 18.05-18.02-2.5-46.68-16.09-69.6-38.48-22.73-22.2-34.75-47.86-31.23-73.23 6.16-44.32 28.33-81.45 43-101.72 15.75-21.76 88.94-10.46 88.94-10.46s73.73 9.62 82.28 37.68c8.73 28.69 18.76 72.47 14.07 106.22Z" fill="#FFC499"/></svg>