<svg width="68" height="68" fill="none" xmlns="http://www.w3.org/2000/svg"><path d="M66.724 17.333c-.441 3.172-3.8 4.434-5.614 4.888 1.59 6.287 2.949 14.295 2.014 21.024-1.032 7.428-6.385 13.163-13.332 16.936-6.938 3.769-14.85 5.222-19.928 4.516-5.078-.705-12.294-4.26-17.943-9.777-5.655-5.524-9.242-12.5-8.21-19.929 1.104-7.949 4.274-14.88 7.262-19.922C9.322 14.038 6.905 12 7.31 9.079a7.998 7.998 0 0 1 9.023-6.821c2.404.334 3.711 2.345 4.4 4.089.139-.034.274-.065.408-.094 2.46-.543 5.19-.688 7.611-.675 2.453.012 4.762.189 6.445.36a69.972 69.972 0 0 1 2.775.337l.022.003.024.003a28.25 28.25 0 0 1 .748.111c.495.078 1.196.194 2.04.355 1.677.32 3.963.82 6.34 1.54 2.346.711 4.953 1.688 7.18 3.02l.024.013c1.12-1.562 2.999-3.364 5.552-3.01a7.998 7.998 0 0 1 6.822 9.023Zm-7.561 25.362c1.058-7.612-1.204-17.488-3.174-23.957-1.928-6.33-18.56-8.5-18.56-8.5s-16.507-2.55-20.06 2.36c-3.307 4.57-8.308 12.946-9.697 22.944-.795 5.721 1.915 11.507 7.044 16.517 5.168 5.05 11.632 8.113 15.698 8.678 4.066.564 11.12-.621 17.47-4.07 6.3-3.422 10.484-8.25 11.279-13.972Z" fill="url(#a)"/><path d="m37.657 8.638.039.005a24.565 24.565 0 0 1 .701.104c.474.074 1.149.186 1.963.341 1.625.31 3.824.791 6.095 1.48 2.258.685 4.658 1.595 6.649 2.784 1.947 1.164 3.772 2.754 4.43 4.915 1.978 6.493 4.339 16.662 3.229 24.65-.89 6.411-5.547 11.605-12.109 15.17-6.587 3.577-13.987 4.871-18.462 4.25-4.475-.622-11.243-3.884-16.605-9.122C8.245 47.997 5.18 41.73 6.072 35.319c1.44-10.37 6.608-18.997 9.989-23.668 1.25-1.727 3.45-2.598 5.593-3.07 2.215-.489 4.746-.632 7.086-.62 2.353.012 4.582.182 6.217.347a67.632 67.632 0 0 1 2.663.324l.037.006Zm10.226 48.029c6.3-3.422 10.485-8.25 11.28-13.972 1.057-7.612-1.204-17.488-3.174-23.957-1.928-6.33-18.56-8.5-18.56-8.5s-16.507-2.55-20.06 2.36c-3.307 4.57-8.308 12.946-9.697 22.944-.795 5.721 1.915 11.507 7.044 16.517 5.168 5.05 11.632 8.113 15.698 8.678 4.066.564 11.12-.621 17.47-4.07Z" fill="#fff"/><defs><linearGradient id="a" x1="3.534" y1="33.525" x2="66.801" y2="33.525" gradientUnits="userSpaceOnUse"><stop stop-color="#FF5C4D"/><stop offset=".266" stop-color="#EB469F"/><stop offset=".75" stop-color="#8341EF"/><stop offset="1" stop-color="#3F68F9"/></linearGradient></defs></svg>
